# xmcd
#
# Track frame offsets: 
#        150
#        14322
#        33242
#        48929
#        70500
#        88716
#        107621
#        127610
#        143932
#        164579
#        182501
#        201622
#        217063
#        239291
#
# Disc length: 3526 seconds
#
# Revision: 0
# Processed by: cddbd v1.5.2PL0 Copyright (c) Steve Scherf et al.
# Submitted via: ExactAudioCopy v0.99pb5
#
DISCID=be0dc40e
DTITLE=Aikakone - Greatest Hits [CD2)
DYEAR=2008
DGENRE=Pop
TTITLE0=Vuoristorata
TTITLE1=Nostan sut
TTITLE2=Karnevaali
TTITLE3=Odota (2008 remix)
TTITLE4=Tähtikaaren taa (2008 remix)
TTITLE5=Tulisitko (JM Breaks remix)
TTITLE6=Anna Mun Bailaa (99 remix)
TTITLE7=Toiseen maailmaan
TTITLE8=Seis (hidas versio)
TTITLE9=Teimme tarinaa
TTITLE10=Ihan hiljaa
TTITLE11=Rakkauden lähetti
TTITLE12=Matkustanut oon (captain-mix)
TTITLE13=Aarresaari (save the last dance for me remix)
EXTD=
EXTT0=
EXTT1=
EXTT2=
EXTT3=
EXTT4=
EXTT5=
EXTT6=
EXTT7=
EXTT8=
EXTT9=
EXTT10=
EXTT11=
EXTT12=
EXTT13=
PLAYORDER=
